# xmcd CD database file generated by Grip 3.2.0
# 
# Track frame offsets:
#       150
#       20964
#       40590
#       56633
#       80451
#       101287
#       128836
#       154630
#       181391
#       200262
#       220901
#       248397
# 
# Disc length: 3571 seconds
# 
# Revision: 2
# Processed by: cddbd v1.5.2PL0 Copyright (c) Steve Scherf et al.
# Submitted via: Grip 3.2.0
# 
DISCID=950df10c
DTITLE=George Gee Big Band - Settin' The Pace
DYEAR=2004
DGENRE=Jazz
TTITLE0=Out Of Nowhere
TTITLE1=Settin' The Pace
TTITLE2=Lover Come Back To Me
TTITLE3=In A Sentimental Mood
TTITLE4=Mambo Inn
TTITLE5=Ready Now That You Are GG
TTITLE6=Bass In Yo Face
TTITLE7=The Very Thought Of You
TTITLE8=When Your Lover Has Gone
TTITLE9=Autumn Leaves
TTITLE10=I Don't Want To Learn To Sing The Blues
TTITLE11=Scrapple From The Apple
EXTD=
EXTT0=
EXTT1=
EXTT2=
EXTT3=
EXTT4=
EXTT5=
EXTT6=
EXTT7=
EXTT8=
EXTT9=
EXTT10=
EXTT11=
PLAYORDER=
